<svg width="30" height="30" viewBox="0 0 30 30" fill="none" xmlns="http://www.w3.org/2000/svg">
<g clip-path="url(#clip0_1_31)">
<path d="M12.5 15H25.5C25.777 15 26 15.223 26 15.5C26 15.777 25.777 16 25.5 16H12.5C12.223 16 12 15.777 12 15.5C12 15.223 12.223 15 12.5 15ZM12.5 18H25.5C25.777 18 26 18.223 26 18.5C26 18.777 25.777 19 25.5 19H12.5C12.223 19 12 18.777 12 18.5C12 18.223 12.223 18 12.5 18ZM12.5 12H25.5C25.777 12 26 12.223 26 12.5C26 12.777 25.777 13 25.5 13H12.5C12.223 13 12 12.777 12 12.5C12 12.223 12.223 12 12.5 12ZM4.5 11C3.678 11 3 11.678 3 12.5V18.5C3 19.322 3.678 20 4.5 20H8.5C9.322 20 10 19.322 10 18.5V12.5C10 11.678 9.322 11 8.5 11H4.5ZM4.5 12H8.5C8.786 12 9 12.214 9 12.5V18.5C9 18.786 8.786 19 8.5 19H4.5C4.214 19 4 18.786 4 18.5V12.5C4 12.214 4.214 12 4.5 12ZM6.5 2C6.777 2 7 2.223 7 2.5V6.5C7 6.777 6.777 7 6.5 7C6.223 7 6 6.777 6 6.5V2.5C6 2.223 6.223 2 6.5 2ZM23.5 2C23.777 2 24 2.223 24 2.5V6.5C24 6.777 23.777 7 23.5 7C23.223 7 23 6.777 23 6.5V2.5C23 2.223 23.223 2 23.5 2ZM1.5 4C0.678 4 0 4.678 0 5.5V25.5C0 26.322 0.678 27 1.5 27H28.5C29.322 27 30 26.322 30 25.5V5.5C30 4.678 29.322 4 28.5 4H25.5C24.84 4 24.836 5 25.5 5H28.5C28.786 5 29 5.214 29 5.5V25.5C29 25.786 28.786 26 28.5 26H1.5C1.214 26 1 25.786 1 25.5V5.5C1 5.214 1.214 5 1.5 5H4.5C5.17 5 5.154 4 4.5 4H1.5ZM8.5 4C7.87 4 7.817 5 8.5 5H21.5C22.16 5 22.16 4 21.5 4H8.5Z" fill="black"/>
</g>
<defs>
<clipPath id="clip0_1_31">
<rect width="30" height="30" fill="white"/>
</clipPath>
</defs>
</svg>
