<svg width="30" height="30" viewBox="0 0 30 30" fill="none" xmlns="http://www.w3.org/2000/svg">
<path d="M24.3393 23.6845C23.2302 21.7128 21.4135 19.4796 18.456 18.2101C16.7645 19.3934 14.7096 20.0902 12.4944 20.0902C10.2779 20.0902 8.223 19.3935 6.53146 18.2101C3.574 19.4796 1.7573 21.7129 0.648766 23.6845C-0.822464 26.2997 0.331012 30 2.87545 30C5.41994 30 12.4944 30 12.4944 30C12.4944 30 19.5682 30 22.1128 30C24.6571 30 25.8106 26.2997 24.3393 23.6845Z" fill="#D92828"/>
<path d="M12.4944 17.6157C16.8387 17.6157 20.3595 14.0937 20.3595 9.74994V7.86568C20.3595 3.52195 16.8387 0 12.4944 0C8.14935 0 4.62804 3.52195 4.62804 7.86574V9.75C4.62804 14.0937 8.1494 17.6157 12.4944 17.6157Z" fill="#D92828"/>
</svg>
