<svg width="40" height="40" viewBox="0 0 40 40" fill="none" xmlns="http://www.w3.org/2000/svg">
<path d="M27.5937 21.5103L26.8345 22.265C26.8345 22.265 25.0302 24.0592 20.1052 19.162C15.1802 14.265 16.9845 12.471 16.9845 12.471L17.4625 11.9956C18.6402 10.8247 18.7512 8.94485 17.7237 7.57247L15.6221 4.76514C14.3505 3.06654 11.8933 2.84215 10.4358 4.29139L7.81975 6.89254C7.09705 7.61114 6.61275 8.54265 6.67149 9.57602C6.82174 12.2197 8.01785 17.9078 14.6923 24.5443C21.7702 31.582 28.4113 31.8617 31.1272 31.6085C31.9862 31.5285 32.7332 31.091 33.3352 30.4923L35.7028 28.1383C37.301 26.5492 36.8503 23.8248 34.8055 22.7133L31.6213 20.9823C30.2787 20.2525 28.643 20.4668 27.5937 21.5103Z" fill="#D92828"/>
</svg>
