<svg width="25" height="25" viewBox="0 0 25 25" fill="none" xmlns="http://www.w3.org/2000/svg">
<path d="M9.53456 5.63374C10.854 3.26681 11.5137 2.08334 12.5 2.08334C13.4864 2.08334 14.1461 3.2668 15.4654 5.63373L15.8068 6.24608C16.1818 6.91868 16.3691 7.25499 16.6616 7.47689C16.9538 7.69879 17.3178 7.78115 18.0459 7.94589L18.7088 8.09587C21.2709 8.67559 22.5521 8.96545 22.8569 9.94556C23.1616 10.9256 22.2884 11.947 20.5416 13.9895L20.0897 14.5179C19.5934 15.0984 19.3451 15.3885 19.2334 15.7477C19.1219 16.1066 19.1594 16.4938 19.2344 17.2684L19.3028 17.9734C19.5668 20.6985 19.6988 22.0612 18.9009 22.6669C18.1029 23.2727 16.9034 22.7203 14.5045 21.6159L13.8839 21.33C13.2022 21.0162 12.8614 20.8591 12.5 20.8591C12.1387 20.8591 11.7978 21.0162 11.1162 21.33L10.4955 21.6159C8.09656 22.7203 6.89707 23.2727 6.09913 22.6669C5.30117 22.0612 5.43322 20.6985 5.69731 17.9734L5.76561 17.2684C5.84066 16.4938 5.87819 16.1066 5.76653 15.7477C5.65488 15.3885 5.4067 15.0984 4.91034 14.5179L4.45844 13.9895C2.71173 11.947 1.83836 10.9256 2.14316 9.94556C2.44794 8.96545 3.72903 8.67559 6.29119 8.09587L6.95406 7.94589C7.68214 7.78115 8.04619 7.69879 8.33848 7.47689C8.63079 7.25499 8.81826 6.9187 9.1932 6.24608L9.53456 5.63374Z" fill="#D92828"/>
</svg>
